<svg width="46" height="40" viewBox="0 0 46 40" fill="none" xmlns="http://www.w3.org/2000/svg">
<g filter="url(#filter0_d_645_570)">
<path d="M16.9786 7.75288C16.8727 7.52777 16.705 7.33744 16.4951 7.20412C16.2851 7.0708 16.0415 7 15.7927 7C15.544 7 15.3004 7.0708 15.0904 7.20412C14.8804 7.33744 14.7127 7.52777 14.6069 7.75288L4.1246 30.0278C4.05136 30.1835 4.00951 30.3522 4.00144 30.5241C3.99337 30.696 4.01924 30.8678 4.07757 31.0297C4.19536 31.3566 4.43822 31.6234 4.75272 31.7713C5.06721 31.9192 5.42759 31.9362 5.75456 31.8184C6.08153 31.7006 6.34831 31.4577 6.49622 31.1432L9.22491 25.3452H22.3606L25.0893 31.1432C25.1625 31.2989 25.2657 31.4387 25.3929 31.5546C25.5202 31.6704 25.669 31.76 25.8309 31.8184C25.9928 31.8767 26.1646 31.9026 26.3365 31.8945C26.5084 31.8864 26.677 31.8446 26.8328 31.7713C26.9885 31.6981 27.1283 31.5949 27.2441 31.4676C27.3599 31.3404 27.4496 31.1916 27.5079 31.0297C27.5662 30.8678 27.5921 30.696 27.584 30.5241C27.576 30.3522 27.5341 30.1835 27.4609 30.0278L16.9786 7.75288ZM10.4582 22.7246L15.7927 11.3889L21.1273 22.7246H10.4582ZM35.4471 14.8628C33.3572 14.8628 31.7242 15.4312 30.5941 16.5531C30.3575 16.7998 30.2267 17.1291 30.2295 17.4709C30.2323 17.8127 30.3685 18.1398 30.6091 18.3826C30.8497 18.6253 31.1756 18.7644 31.5174 18.7703C31.8591 18.7761 32.1896 18.6481 32.4384 18.4137C33.0607 17.7963 34.0762 17.4834 35.4471 17.4834C37.614 17.4834 39.378 18.9575 39.378 20.7592V21.2865C38.2152 20.5086 36.8461 20.0967 35.4471 20.104C31.834 20.104 28.8957 22.7492 28.8957 26.0003C28.8957 29.2515 31.834 31.8966 35.4471 31.8966C36.8467 31.9028 38.2159 31.4891 39.378 30.7092C39.3943 31.0567 39.5479 31.3835 39.8052 31.6177C40.0624 31.8519 40.4022 31.9743 40.7497 31.958C41.0972 31.9418 41.424 31.7881 41.6582 31.5308C41.8924 31.2736 42.0149 30.9338 41.9986 30.5863V20.7592C41.9986 17.508 39.0602 14.8628 35.4471 14.8628ZM35.4471 29.276C33.2802 29.276 31.5162 27.802 31.5162 26.0003C31.5162 24.1987 33.2802 22.7246 35.4471 22.7246C37.614 22.7246 39.378 24.1987 39.378 26.0003C39.378 27.802 37.614 29.276 35.4471 29.276Z" fill="white"/>
</g>
<defs>
<filter id="filter0_d_645_570" x="0" y="7" width="46" height="32.9595" filterUnits="userSpaceOnUse" color-interpolation-filters="sRGB">
<feFlood flood-opacity="0" result="BackgroundImageFix"/>
<feColorMatrix in="SourceAlpha" type="matrix" values="0 0 0 0 0 0 0 0 0 0 0 0 0 0 0 0 0 0 127 0" result="hardAlpha"/>
<feOffset dy="4"/>
<feGaussianBlur stdDeviation="2"/>
<feComposite in2="hardAlpha" operator="out"/>
<feColorMatrix type="matrix" values="0 0 0 0 0 0 0 0 0 0 0 0 0 0 0 0 0 0 0.25 0"/>
<feBlend mode="normal" in2="BackgroundImageFix" result="effect1_dropShadow_645_570"/>
<feBlend mode="normal" in="SourceGraphic" in2="effect1_dropShadow_645_570" result="shape"/>
</filter>
</defs>
</svg>
