<svg width="40" height="43" viewBox="0 0 40 43" fill="none" xmlns="http://www.w3.org/2000/svg">
<g filter="url(#filter0_d_645_564)">
<path d="M34 33L24.6667 23.6667M6 15.8889C6 17.3188 6.28165 18.7348 6.82887 20.0559C7.37609 21.377 8.17815 22.5774 9.18928 23.5885C10.2004 24.5996 11.4008 25.4017 12.7219 25.9489C14.043 26.4961 15.4589 26.7778 16.8889 26.7778C18.3188 26.7778 19.7348 26.4961 21.0559 25.9489C22.377 25.4017 23.5774 24.5996 24.5885 23.5885C25.5996 22.5774 26.4017 21.377 26.9489 20.0559C27.4961 18.7348 27.7778 17.3188 27.7778 15.8889C27.7778 14.4589 27.4961 13.043 26.9489 11.7219C26.4017 10.4008 25.5996 9.20041 24.5885 8.18928C23.5774 7.17815 22.377 6.37608 21.0559 5.82887C19.7348 5.28165 18.3188 5 16.8889 5C15.4589 5 14.043 5.28165 12.7219 5.82887C11.4008 6.37608 10.2004 7.17815 9.18928 8.18928C8.17815 9.20041 7.37609 10.4008 6.82887 11.7219C6.28165 13.043 6 14.4589 6 15.8889Z" stroke="white" stroke-width="3" stroke-linecap="round" stroke-linejoin="round" shape-rendering="crispEdges"/>
</g>
<defs>
<filter id="filter0_d_645_564" x="0.5" y="3.5" width="39" height="39" filterUnits="userSpaceOnUse" color-interpolation-filters="sRGB">
<feFlood flood-opacity="0" result="BackgroundImageFix"/>
<feColorMatrix in="SourceAlpha" type="matrix" values="0 0 0 0 0 0 0 0 0 0 0 0 0 0 0 0 0 0 127 0" result="hardAlpha"/>
<feOffset dy="4"/>
<feGaussianBlur stdDeviation="2"/>
<feComposite in2="hardAlpha" operator="out"/>
<feColorMatrix type="matrix" values="0 0 0 0 0 0 0 0 0 0 0 0 0 0 0 0 0 0 0.25 0"/>
<feBlend mode="normal" in2="BackgroundImageFix" result="effect1_dropShadow_645_564"/>
<feBlend mode="normal" in="SourceGraphic" in2="effect1_dropShadow_645_564" result="shape"/>
</filter>
</defs>
</svg>
