<svg width="40" height="42" viewBox="0 0 40 42" fill="none" xmlns="http://www.w3.org/2000/svg">
<g filter="url(#filter0_d_645_567)">
<path d="M27.0646 4.12667C25.9849 4.24174 25.126 5.07019 24.9788 6.08274L23.0893 13.6079C22.8193 14.6664 23.3837 15.771 24.4389 16.2313L25.8867 16.8526C24.807 19.4991 22.4267 21.3171 22.4267 21.3171C22.4267 21.3171 20.4636 23.5493 17.6661 24.5618L17.0036 23.2041C16.7645 22.7229 16.3554 22.334 15.8455 22.1034C15.3357 21.8727 14.7565 21.8144 14.2061 21.9384L6.18182 23.7104C5.1021 23.8485 4.2187 24.6539 4.096 25.6665C3.85061 27.5535 3.92423 30.4991 6.18182 32.0639C6.18182 32.0639 16.3655 38.7836 28.7332 27.1853C41.1009 15.5869 33.9355 6.03672 33.9355 6.03672C32.2423 3.91956 29.1013 3.87354 27.1137 4.08065L27.0646 4.12667Z" fill="white"/>
</g>
<defs>
<filter id="filter0_d_645_567" x="0" y="4" width="40" height="38" filterUnits="userSpaceOnUse" color-interpolation-filters="sRGB">
<feFlood flood-opacity="0" result="BackgroundImageFix"/>
<feColorMatrix in="SourceAlpha" type="matrix" values="0 0 0 0 0 0 0 0 0 0 0 0 0 0 0 0 0 0 127 0" result="hardAlpha"/>
<feOffset dy="4"/>
<feGaussianBlur stdDeviation="2"/>
<feComposite in2="hardAlpha" operator="out"/>
<feColorMatrix type="matrix" values="0 0 0 0 0 0 0 0 0 0 0 0 0 0 0 0 0 0 0.25 0"/>
<feBlend mode="normal" in2="BackgroundImageFix" result="effect1_dropShadow_645_567"/>
<feBlend mode="normal" in="SourceGraphic" in2="effect1_dropShadow_645_567" result="shape"/>
</filter>
</defs>
</svg>
